<svg width="212" height="42" viewBox="0 0 212 42" fill="none" xmlns="http://www.w3.org/2000/svg">
<path d="M49.3276 9.89844H31.44L30.7773 10.4009V26.5332H35.729V20.4837L36.2017 20.0543H49.3283C52.6426 20.0543 54.1964 19.1503 54.1964 16.8307V13.1266C54.1958 10.8032 52.6426 9.89844 49.3276 9.89844ZM49.3276 15.8626C49.3276 16.9555 48.6145 17.1825 47.0607 17.1825H36.2559L35.7284 16.6626V13.2068L36.201 12.7684H47.0607C48.6145 12.7684 49.3276 12.9928 49.3276 14.0908V15.8626Z" fill="white"/>
<path d="M63.2255 12.9513L67.4865 19.2802L67.2505 19.8932H57.8273L55.4219 22.8931H69.4485L70.4206 23.4932L72.5983 26.5383H78.2651L65.844 9.69336" fill="white"/>
<path d="M119.57 23.2611V18.7836L120.08 18.3374H129.56V15.4863H114.535V26.5371H136.698V23.6995H120.102" fill="white"/>
<path d="M136.932 9.89844H114.535V13.0335H136.932V9.89844Z" fill="white"/>
<path d="M89.5556 12.8679H107.599C107.321 10.5419 105.897 9.89648 102.286 9.89648H89.3636C85.2883 9.89648 83.9883 10.7029 83.9883 13.8295V22.6015C83.9883 25.7313 85.2883 26.5377 89.3636 26.5377H102.286C105.95 26.5377 107.353 25.84 107.449 23.4273H89.5556L89.0249 22.9209V13.2068" fill="white"/>
<path d="M18.7337 16.3805H5.60714L5.22059 15.9492V13.1026L5.60523 12.8013H23.3008L23.5426 12.2018C22.9398 10.6298 21.379 9.89648 18.4805 9.89648H6.18823C2.11547 9.89648 0.813596 10.7028 0.813596 13.8294V15.6686C0.813596 18.7991 2.11547 19.6041 6.18823 19.6041H19.2855L19.6969 19.9702V22.9461L19.3614 23.4104H4.37989V23.3962H0.455754C0.455754 23.3962 0.0066982 23.6244 0.0239205 23.7311C0.358799 25.9182 1.82844 26.5377 5.34689 26.5377H18.7337C22.8059 26.5377 24.1467 25.7313 24.1467 22.6014V20.3103C24.1467 17.1856 22.8059 16.3805 18.7337 16.3805Z" fill="white"/>
<path d="M151.022 9.83008H143.654L143.254 10.6015L151.437 16.6484C152.987 15.7386 154.673 14.8164 156.508 13.9066" fill="white"/>
<path d="M157.625 21.2214L164.817 26.5383H172.275L172.584 25.834L161.845 17.8652C160.418 18.9264 159.009 20.0471 157.625 21.2214Z" fill="white"/>
<path d="M149.925 26.5264H143.258L142.695 25.632C147.228 21.1953 167.501 2.1763 211.567 0.138672C211.567 0.138672 174.58 1.40354 149.925 26.5264Z" fill="white"/>
<path d="M3.1661 39.7041C2.4461 39.7041 1.89276 39.5775 1.5061 39.3241C1.11943 39.0708 0.85276 38.6975 0.706094 38.2041C0.566094 37.7041 0.496094 37.0408 0.496094 36.2141C0.496094 35.3075 0.57276 34.6008 0.726093 34.0941C0.886094 33.5875 1.14943 33.2241 1.5161 33.0041C1.88276 32.7775 2.3961 32.6641 3.0561 32.6641C3.66276 32.6641 4.33943 32.7541 5.0861 32.9341L5.0461 34.0341C4.3861 33.9341 3.84943 33.8841 3.4361 33.8841C3.0161 33.8841 2.69943 33.9508 2.4861 34.0841C2.27276 34.2175 2.12276 34.4375 2.0361 34.7441C1.9561 35.0441 1.9161 35.4708 1.9161 36.0241V36.3941C1.92943 36.9675 1.96943 37.3975 2.0361 37.6841C2.10943 37.9641 2.24943 38.1675 2.4561 38.2941C2.66276 38.4208 2.97943 38.4841 3.4061 38.4841C3.85943 38.4841 4.4061 38.4375 5.0461 38.3441L5.0761 39.4741C4.34943 39.6275 3.71276 39.7041 3.1661 39.7041ZM17.8557 38.3541H15.4757L15.2057 39.5841H13.8257L15.3557 32.7841H17.9757L19.5057 39.5841H18.1257L17.8557 38.3541ZM16.9057 33.9241H16.4257L15.7357 37.1541H17.5957L16.9057 33.9241ZM28.6114 32.7841H31.2514C32.8514 32.7841 33.6514 33.5308 33.6514 35.0241C33.6514 35.9108 33.318 36.5641 32.6514 36.9841L33.6214 39.5841H32.1114L31.3214 37.3041H29.9914V39.5841H28.6114V32.7841ZM31.2714 36.1241C31.5847 36.1241 31.8247 36.0275 31.9914 35.8341C32.158 35.6341 32.2414 35.3675 32.2414 35.0341C32.2414 34.7008 32.1547 34.4408 31.9814 34.2541C31.808 34.0608 31.5647 33.9641 31.2514 33.9641H29.9914V36.1241H31.2714ZM45.5025 39.7041C44.8025 39.7041 44.2492 39.5808 43.8425 39.3341C43.4425 39.0875 43.1559 38.7075 42.9825 38.1941C42.8092 37.6808 42.7225 37.0008 42.7225 36.1541C42.7225 35.3208 42.8125 34.6508 42.9925 34.1441C43.1725 33.6308 43.4592 33.2575 43.8525 33.0241C44.2525 32.7841 44.7859 32.6641 45.4525 32.6641C46.0725 32.6641 46.7425 32.7341 47.4625 32.8741L47.8225 32.9441L47.7825 34.0141C47.0092 33.9275 46.3559 33.8841 45.8225 33.8841C45.2959 33.8841 44.9125 33.9741 44.6725 34.1541C44.4325 34.3275 44.2825 34.5675 44.2225 34.8741C44.1692 35.1741 44.1425 35.6241 44.1425 36.2241C44.1425 36.8175 44.1825 37.2741 44.2625 37.5941C44.3425 37.9141 44.4859 38.1475 44.6925 38.2941C44.9059 38.4341 45.2192 38.5041 45.6325 38.5041C46.0259 38.5041 46.3025 38.4908 46.4625 38.4641V37.1441H45.8425V35.9441H47.8225V39.4741C46.8492 39.6275 46.0759 39.7041 45.5025 39.7041ZM59.8458 39.7041C59.1591 39.7041 58.6091 39.5808 58.1958 39.3341C57.7825 39.0875 57.4825 38.7108 57.2958 38.2041C57.1158 37.6908 57.0258 37.0275 57.0258 36.2141C57.0258 35.3941 57.1158 34.7275 57.2958 34.2141C57.4825 33.6941 57.7825 33.3075 58.1958 33.0541C58.6091 32.7941 59.1591 32.6641 59.8458 32.6641C60.5325 32.6641 61.0825 32.7941 61.4958 33.0541C61.9091 33.3075 62.2058 33.6941 62.3858 34.2141C62.5725 34.7275 62.6658 35.3941 62.6658 36.2141C62.6658 37.0141 62.5758 37.6675 62.3958 38.1741C62.2225 38.6808 61.9291 39.0641 61.5158 39.3241C61.1025 39.5775 60.5458 39.7041 59.8458 39.7041ZM59.8458 38.5041C60.2058 38.5041 60.4858 38.4308 60.6858 38.2841C60.8925 38.1308 61.0358 37.8908 61.1158 37.5641C61.2025 37.2308 61.2458 36.7808 61.2458 36.2141C61.2458 35.6475 61.2025 35.1975 61.1158 34.8641C61.0291 34.5241 60.8825 34.2741 60.6758 34.1141C60.4758 33.9475 60.1991 33.8641 59.8458 33.8641C59.4925 33.8641 59.2125 33.9475 59.0058 34.1141C58.8058 34.2741 58.6625 34.5241 58.5758 34.8641C58.4891 35.1975 58.4458 35.6475 58.4458 36.2141C58.4458 36.7408 58.4825 37.1675 58.5558 37.4941C58.6291 37.8208 58.7658 38.0708 58.9658 38.2441C59.1725 38.4175 59.4658 38.5041 59.8458 38.5041ZM82.4465 32.7841H84.9465C86.5598 32.7841 87.3665 33.5708 87.3665 35.1441C87.3665 35.9441 87.1598 36.5541 86.7465 36.9741C86.3398 37.3941 85.7398 37.6041 84.9465 37.6041H83.8265V39.5841H82.4465V32.7841ZM84.9365 36.4241C85.6232 36.4241 85.9665 35.9975 85.9665 35.1441C85.9665 34.7308 85.8832 34.4308 85.7165 34.2441C85.5565 34.0575 85.2965 33.9641 84.9365 33.9641H83.8265V36.4241H84.9365ZM100.405 38.3641V39.5841H96.5352V32.7841H97.9152V38.3641H100.405ZM112.912 38.3541H110.532L110.262 39.5841H108.882L110.412 32.7841H113.032L114.562 39.5841H113.182L112.912 38.3541ZM111.962 33.9241H111.482L110.792 37.1541H112.652L111.962 33.9241ZM129.118 32.7841V39.5841H126.848L125.148 33.9841H125.048V39.5841H123.668V32.7841H125.998L127.638 38.3841H127.738V32.7841H129.118ZM144.251 32.7841V39.5841H141.981L140.281 33.9841H140.181V39.5841H138.801V32.7841H141.131L142.771 38.3841H142.871V32.7841H144.251ZM155.315 33.9841V35.5741H157.735V36.7541H155.315V38.3841H158.335V39.5841H153.935V32.7841H158.335V33.9841H155.315ZM167.672 32.7841H170.312C171.912 32.7841 172.712 33.5308 172.712 35.0241C172.712 35.9108 172.379 36.5641 171.712 36.9841L172.682 39.5841H171.172L170.382 37.3041H169.052V39.5841H167.672V32.7841ZM170.332 36.1241C170.645 36.1241 170.885 36.0275 171.052 35.8341C171.219 35.6341 171.302 35.3675 171.302 35.0341C171.302 34.7008 171.215 34.4408 171.042 34.2541C170.869 34.0608 170.625 33.9641 170.312 33.9641H169.052V36.1241H170.332Z" fill="white"/>
</svg>
